<svg xmlns="http://www.w3.org/2000/svg" xmlns:xlink="http://www.w3.org/1999/xlink" viewBox="0 0 88.69 151.88"><defs><style>.cls-1{fill:url(#Degradado_sin_nombre_4);}.cls-2{fill:url(#Degradado_sin_nombre_5);}.cls-3{fill:url(#Degradado_sin_nombre_3);}.cls-4{fill:url(#Degradado_sin_nombre_4-2);}.cls-5{fill:url(#Degradado_sin_nombre_5-2);}.cls-6{opacity:0.68;isolation:isolate;fill:url(#Degradado_sin_nombre_6);}.cls-7{fill:gray;}.cls-8{fill:#343434;}.cls-9{fill:url(#Degradado_sin_nombre_7);}.cls-10{fill:#fff;}</style><linearGradient id="Degradado_sin_nombre_4" x1="332.05" y1="-544.48" x2="363.3" y2="-544.48" gradientTransform="matrix(1, 0, 0, -1, -302.6, -422.59)" gradientUnits="userSpaceOnUse"><stop offset="0" stop-color="gray"/><stop offset="1" stop-color="#5b5b5b"/></linearGradient><linearGradient id="Degradado_sin_nombre_5" x1="415.71" y1="-527.83" x2="415.71" y2="-542.18" gradientTransform="matrix(1, 0, 0, -1, -371.36, -422.59)" gradientUnits="userSpaceOnUse"><stop offset="0"/><stop offset="1" stop-opacity="0"/></linearGradient><linearGradient id="Degradado_sin_nombre_3" x1="170.25" y1="31.33" x2="132.5" y2="31.33" gradientTransform="matrix(1, 0, 0, -1, -107.55, 157.41)" gradientUnits="userSpaceOnUse"><stop offset="0" stop-color="#585858"/><stop offset="1" stop-color="#434343"/></linearGradient><linearGradient id="Degradado_sin_nombre_4-2" x1="332.05" y1="-533.59" x2="363.3" y2="-533.59" xlink:href="#Degradado_sin_nombre_4"/><linearGradient id="Degradado_sin_nombre_5-2" x1="346.94" y1="-531.68" x2="346.94" y2="-535.38" gradientTransform="matrix(1, 0, 0, -1, -302.6, -422.59)" xlink:href="#Degradado_sin_nombre_5"/><linearGradient id="Degradado_sin_nombre_6" x1="304.77" y1="-464.79" x2="377.02" y2="-490.79" gradientTransform="matrix(1, 0, 0, -1, -302.6, -422.59)" gradientUnits="userSpaceOnUse"><stop offset="0" stop-color="#959595" stop-opacity="0.31"/><stop offset="1" stop-color="#3d3d3d" stop-opacity="0.54"/></linearGradient><linearGradient id="Degradado_sin_nombre_7" x1="346.94" y1="-526.79" x2="346.94" y2="-494.34" gradientTransform="matrix(1, 0, 0, -1, -302.6, -422.59)" gradientUnits="userSpaceOnUse"><stop offset="0" stop-color="#b9b9b9"/><stop offset="1" stop-color="#cecece" stop-opacity="0"/></linearGradient></defs><title>Recurso 1</title><g id="Capa_2" data-name="Capa 2"><g id="svg2"><g id="layer2"><g id="g4131"><rect id="rect3835" class="cls-1" x="27.47" y="106.27" width="33.75" height="31.25"/><rect id="rect4011" class="cls-2" x="27.47" y="106.27" width="33.75" height="31.25"/><path id="path3869" class="cls-3" d="M25.45,114.75v2.44l17.75-2.44ZM63.2,115l-37.75,5.19v2.06l37.75-5.19Zm0,5.06-37.75,5.19v2.06l37.75-5.19Zm0,5.06-37.75,5.19v2l37.75-5.19Zm0,5-37.75,5.19v2.06l37.75-5.19Z"/><path id="rect3837" class="cls-4" d="M25.09,107.13v5.25a2.49,2.49,0,0,0,2.5,2.5h33.5a2.49,2.49,0,0,0,2.5-2.5v-5.25Z"/><path id="path4001" class="cls-5" d="M25.09,107.13v5.25a2.49,2.49,0,0,0,2.5,2.5h33.5a2.49,2.49,0,0,0,2.5-2.5v-5.25Z"/><path id="path3032" class="cls-6" d="M44.34,0A44.34,44.34,0,0,0,10.94,73.5a29.56,29.56,0,0,1,7.47,16.66l0,12.43a8,8,0,0,0,8,8H62.23a8,8,0,0,0,8-8V90.16a29.6,29.6,0,0,1,7.47-16.62s0,0,0,0A44.31,44.31,0,0,0,44.34,0Z"/><path id="rect3880" class="cls-7" d="M27.45,137.5l4.25,4.75H57l4.25-4.75Z"/><path id="rect3883" class="cls-8" d="M31.69,142.25a3.63,3.63,0,0,0,1.56,2.87l7.31,5.57a6.54,6.54,0,0,0,7.53,0l7.31-5.57A3.63,3.63,0,0,0,57,142.25Z"/><path id="path4121" class="cls-9" d="M44.34,0A44.34,44.34,0,0,0,10.94,73.5a29.56,29.56,0,0,1,7.47,16.66l0,12.43a8,8,0,0,0,8,8H62.23a8,8,0,0,0,8-8V90.16a29.6,29.6,0,0,1,7.47-16.62s0,0,0,0A44.31,44.31,0,0,0,44.34,0Z"/><path id="path3948" class="cls-10" d="M31.3,10.28A41.11,41.11,0,0,0,8.37,47.09c0,.61.13,1.33.19,2l11.94-2A34.58,34.58,0,0,1,37.74,21.12L31.3,10.28Z"/></g></g></g></g></svg>