<svg xmlns="http://www.w3.org/2000/svg" xmlns:xlink="http://www.w3.org/1999/xlink" viewBox="0 0 88.69 151.88"><defs><style>.cls-1{fill:#f9ff00;opacity:0.68;}.cls-1,.cls-7{isolation:isolate;}.cls-2{fill:url(#Degradado_sin_nombre_11);}.cls-3{fill:url(#Degradado_sin_nombre_12);}.cls-4{fill:url(#Degradado_sin_nombre_10);}.cls-5{fill:url(#Degradado_sin_nombre_11-2);}.cls-6{fill:url(#Degradado_sin_nombre_12-2);}.cls-7{opacity:0.28;fill:url(#Degradado_sin_nombre_13);}.cls-8{fill:gray;}.cls-9{fill:#343434;}.cls-10{fill:url(#Degradado_sin_nombre_14);}.cls-11{fill:#fff;}</style><linearGradient id="Degradado_sin_nombre_11" x1="222.05" y1="-544.48" x2="253.3" y2="-544.48" gradientTransform="matrix(1, 0, 0, -1, -192.6, -422.59)" gradientUnits="userSpaceOnUse"><stop offset="0" stop-color="gray"/><stop offset="1" stop-color="#5b5b5b"/></linearGradient><linearGradient id="Degradado_sin_nombre_12" x1="305.71" y1="-527.83" x2="305.71" y2="-542.18" gradientTransform="matrix(1, 0, 0, -1, -261.36, -422.59)" gradientUnits="userSpaceOnUse"><stop offset="0"/><stop offset="1" stop-opacity="0"/></linearGradient><linearGradient id="Degradado_sin_nombre_10" x1="60.25" y1="31.33" x2="22.5" y2="31.33" gradientTransform="matrix(1, 0, 0, -1, 2.45, 157.41)" gradientUnits="userSpaceOnUse"><stop offset="0" stop-color="#585858"/><stop offset="1" stop-color="#434343"/></linearGradient><linearGradient id="Degradado_sin_nombre_11-2" x1="222.05" y1="-533.59" x2="253.3" y2="-533.59" xlink:href="#Degradado_sin_nombre_11"/><linearGradient id="Degradado_sin_nombre_12-2" x1="236.94" y1="-531.68" x2="236.94" y2="-535.38" gradientTransform="matrix(1, 0, 0, -1, -192.6, -422.59)" xlink:href="#Degradado_sin_nombre_12"/><linearGradient id="Degradado_sin_nombre_13" x1="194.77" y1="-464.79" x2="267.02" y2="-490.79" gradientTransform="matrix(1, 0, 0, -1, -192.6, -422.59)" gradientUnits="userSpaceOnUse"><stop offset="0" stop-color="#fefef9" stop-opacity="0.31"/><stop offset="1" stop-color="#3d3d3d" stop-opacity="0.54"/></linearGradient><linearGradient id="Degradado_sin_nombre_14" x1="237.81" y1="-526.87" x2="237.31" y2="-492.17" gradientTransform="matrix(1, 0, 0, -1, -192.6, -422.59)" gradientUnits="userSpaceOnUse"><stop offset="0" stop-color="#e9e337"/><stop offset="1" stop-color="#f9fca2" stop-opacity="0"/></linearGradient></defs><title>Recurso 2</title><g id="Capa_2" data-name="Capa 2"><g id="svg2"><g id="layer2"><g id="g4210"><g id="g4153"><path id="path4189" class="cls-1" d="M44.34,0A44.34,44.34,0,0,0,10.94,73.5a29.56,29.56,0,0,1,7.47,16.66l0,12.43a8,8,0,0,0,8,8H62.23a8,8,0,0,0,8-8V90.16a29.6,29.6,0,0,1,7.47-16.62s0,0,0,0A44.31,44.31,0,0,0,44.34,0Z"/><rect id="rect4155" class="cls-2" x="27.47" y="106.27" width="33.75" height="31.25"/><rect id="rect4157" class="cls-3" x="27.47" y="106.27" width="33.75" height="31.25"/><path id="path4159" class="cls-4" d="M25.45,114.75v2.44l17.75-2.44ZM63.2,115l-37.75,5.19v2.06l37.75-5.19Zm0,5.06-37.75,5.19v2.06l37.75-5.19Zm0,5.06-37.75,5.19v2l37.75-5.19Zm0,5-37.75,5.19v2.06l37.75-5.19Z"/><path id="path4161" class="cls-5" d="M25.09,107.13v5.25a2.49,2.49,0,0,0,2.5,2.5h33.5a2.49,2.49,0,0,0,2.5-2.5v-5.25Z"/><path id="path4163" class="cls-6" d="M25.09,107.13v5.25a2.49,2.49,0,0,0,2.5,2.5h33.5a2.49,2.49,0,0,0,2.5-2.5v-5.25Z"/><path id="path4165" class="cls-7" d="M44.34,0A44.34,44.34,0,0,0,10.94,73.5a29.56,29.56,0,0,1,7.47,16.66l0,12.43a8,8,0,0,0,8,8H62.23a8,8,0,0,0,8-8V90.16a29.6,29.6,0,0,1,7.47-16.62s0,0,0,0A44.31,44.31,0,0,0,44.34,0Z"/><path id="path4167" class="cls-8" d="M27.45,137.5l4.25,4.75H57l4.25-4.75Z"/><path id="path4169" class="cls-9" d="M31.69,142.25a3.63,3.63,0,0,0,1.56,2.87l7.31,5.57a6.54,6.54,0,0,0,7.53,0l7.31-5.57A3.63,3.63,0,0,0,57,142.25Z"/><path id="path4171" class="cls-10" d="M44.34,0A44.34,44.34,0,0,0,10.94,73.5a29.56,29.56,0,0,1,7.47,16.66l0,12.43a8,8,0,0,0,8,8H62.23a8,8,0,0,0,8-8V90.16a29.6,29.6,0,0,1,7.47-16.62s0,0,0,0A44.31,44.31,0,0,0,44.34,0Z"/><path id="path4173" class="cls-11" d="M31.3,10.28A41.11,41.11,0,0,0,8.37,47.09c0,.61.13,1.33.19,2l11.94-2A34.58,34.58,0,0,1,37.74,21.12L31.3,10.28Z"/></g></g></g></g></g></svg>